<svg viewBox="0 0 24 24" xmlns="http://www.w3.org/2000/svg">
  <path fill="#ffffff" d="M21.17 2.06l-9.15 9.15-5.17-5.17-1.42 1.41 6.59 6.59 10.57-10.57-1.42-1.41z" />
  <path fill="#ffffff" d="M19 12.83v5.17c0 1.1-.9 2-2 2h-12c-1.1 0-2-.9-2-2v-12c0-1.1.9-2 2-2h8.17l2-2h-10.17c-2.21 0-4 1.79-4 4v12c0 2.21 1.79 4 4 4h12c2.21 0 4-1.79 4-4v-7.17l-2 2z" />
  <path fill="#ffffff" d="M14 7v1.79c0 .45.54.67.85.35l2.79-2.79c.2-.2.2-.51 0-.71l-2.79-2.79c-.31-.31-.85-.09-.85.36v1.79h-3.25c-3.75 0-3.75 4 0 4h1.08c1.92 0 2.93-2.54 1.66-4h.51z" />
</svg>